<?xml version="1.0" standalone="no"?><!DOCTYPE svg PUBLIC "-//W3C//DTD SVG 1.1//EN" "http://www.w3.org/Graphics/SVG/1.1/DTD/svg11.dtd"><svg t="1642384855491" class="icon" viewBox="0 0 1024 1024" version="1.1" xmlns="http://www.w3.org/2000/svg" p-id="8788" xmlns:xlink="http://www.w3.org/1999/xlink" width="200" height="200"><defs><style type="text/css"></style></defs><path d="M872.836 785.462c-6.184-8.638-16.224-13.796-26.858-13.796-6.912 0-13.544 2.132-19.184 6.166-14.796 10.588-18.22 31.242-7.63 46.042 4.594 6.418 16.148 28.196 13.402 42.424-0.84 0.952-5.578 5.49-22.676 10.15-20.18 5.5-49.902 9.078-93.54 11.264-46.514 2.324-140.794 4.012-224.18 4.012-76.428 0-134.418-1.394-163.288-3.928-12.322-1.082-24.146-1.98-35.608-2.854-48.538-3.692-94.394-7.18-109.628-21.294-0.96-1.762-3.152-11 1.482-29.93 5.104-20.854 14.126-36.498 16.256-39.09 9.23-8.38 76.138-43.07 127.376-63.254 23.398-9.218 49.916-19.666 70.374-37.328 27.11-23.406 38.168-54.144 32.868-91.364-3.796-26.662-4.276-28.538-4.698-30.19-1.648-6.44-5.156-12.172-10.148-16.578-0.298-0.264-30.026-26.694-46.408-53.242-16.31-26.436-23.006-48.362-23.052-48.514-1.792-6.194-5.328-11.684-10.168-15.834-0.306-0.268-30.53-27.33-30.53-59.656 0-21.598 6.89-29.886 9.134-32.012 7.712-3.272 16.53-10.688 17.48-27.484 0.052-0.876 5.59-88.128 46.024-134.932 31.65-36.638 68.406-51.166 127.58-50.574 61.948 0.596 103.882 27.042 122.474 51.588 49.792 65.75 47.046 119.234 46.794 122.856-1.506 13.274 4.178 24.878 15.248 31.18 2.7 2.156 16.02 14.356 15.274 44.562-0.662 26.84-11.944 35.18-14.624 36.786-8.112 2.714-13.79 8.194-17.822 17.176-0.762 1.686-18.834 41.576-34.466 63.572-15.478 21.784-43.314 47.246-43.598 47.5-5.918 5.37-9.686 12.696-10.612 20.632-0.612 5.246-3.62 32.162-2.852 46.664 0.008 0.616-0.074 2.12-0.13 3.232-0.828 16.586-3.028 60.642 54.832 91.668 47.64 25.542 90.894 40.77 92.716 41.406 3.52 1.228 7.178 1.85 10.876 1.85 14.004 0 26.522-8.886 31.146-22.116 6.004-17.17-3.08-36.03-20.25-42.042-0.398-0.138-40.378-14.252-83.298-37.268-21.048-11.284-20.694-18.406-20.104-30.238 0.152-3.08 0.31-6.266 0.128-9.752-0.208-3.932 0.282-13.006 1.288-24.034 11.232-10.914 30.188-30.32 43.658-49.278 14.11-19.858 28.436-48.388 36.214-64.744 13.7-9.408 41.538-35.144 42.876-89.39 1.156-46.908-17.906-75.378-30.688-89.104-1.572-30.014-11.746-87.252-59.996-150.966-35.79-47.262-102.634-77.05-174.458-77.744-78.77-0.666-133.61 21.864-178.154 73.426-43.596 50.464-56.808 126.394-60.604 159.31-13.244 13.262-28.092 37.278-28.092 78.264 0 49.626 31.52 87.716 46.314 102.85 4.06 11.188 12.64 32.102 27.27 55.81 15.19 24.62 37.118 47.388 49.92 59.72 0.534 3.616 1.238 8.46 2.16 14.938 3.956 27.788-9.676 37.328-62.094 57.976-26.152 10.304-126.092 54.226-149.904 78.038-16.372 16.368-38.888 65.224-38.372 107.608 0.356 29.298 11.95 46.42 21.614 55.624 32.048 30.522 84.26 34.494 150.362 39.522 11.254 0.856 22.892 1.74 34.844 2.79 30.96 2.716 91.424 4.212 170.254 4.212 83.312 0 178.474-1.736 226.278-4.128 82.448-4.12 164.046-13.11 177.234-72.468C907.112 835.124 876.376 790.412 872.836 785.462z" p-id="8789" fill="#bfbfbf"></path></svg>