<?xml version="1.0" standalone="no"?><!DOCTYPE svg PUBLIC "-//W3C//DTD SVG 1.1//EN" "http://www.w3.org/Graphics/SVG/1.1/DTD/svg11.dtd"><svg t="1642384455538" class="icon" viewBox="0 0 1024 1024" version="1.1" xmlns="http://www.w3.org/2000/svg" p-id="3747" xmlns:xlink="http://www.w3.org/1999/xlink" width="200" height="200"><defs><style type="text/css"></style></defs><path d="M1024.000427 682.666667a42.666667 42.666667 0 0 1-85.333334 0V341.333333a42.666667 42.666667 0 0 0-42.666666-42.666666h-8.234667a42.666667 42.666667 0 0 1 0-85.333334H896.000427a128 128 0 0 1 128 128v341.333334z" p-id="3748" fill="#cdcdcd"></path><path d="M938.667093 895.061333v-296.490666a42.666667 42.666667 0 0 1 85.333334 0v300.458666c0.042667 5.973333 0 9.130667-0.170667 13.312-1.024 19.669333-5.546667 35.626667-19.370667 49.450667-33.322667 33.28-87.381333 33.28-122.965333-2.474667L790.99776 853.333333H341.33376a42.666667 42.666667 0 0 1 0-85.333333h449.664a85.333333 85.333333 0 0 1 64.853333 29.909333L938.667093 895.061333z" p-id="3749" fill="#cdcdcd"></path><path d="M231.50976 640H768.000427a42.666667 42.666667 0 0 0 42.666666-42.666667V128a42.666667 42.666667 0 0 0-42.666666-42.666667H128.000427a42.666667 42.666667 0 0 0-42.666667 42.666667v650.069333L231.50976 640z m33.92 85.333333l-121.514667 114.773334A85.333333 85.333333 0 0 1 0.000427 778.069333V128a128 128 0 0 1 128-128h640a128 128 0 0 1 128 128v469.333333a128 128 0 0 1-128 128H265.42976z" p-id="3750" fill="#cdcdcd"></path><path d="M234.667093 362.666667m-64 0a64 64 0 1 0 128 0 64 64 0 1 0-128 0Z" p-id="3751" fill="#cdcdcd"></path><path d="M448.000427 362.666667m-64 0a64 64 0 1 0 128 0 64 64 0 1 0-128 0Z" p-id="3752" fill="#cdcdcd"></path><path d="M661.33376 362.666667m-64 0a64 64 0 1 0 128 0 64 64 0 1 0-128 0Z" p-id="3753" fill="#cdcdcd"></path></svg>