<?xml version="1.0" standalone="no"?><!DOCTYPE svg PUBLIC "-//W3C//DTD SVG 1.1//EN" "http://www.w3.org/Graphics/SVG/1.1/DTD/svg11.dtd"><svg t="1642384631762" class="icon" viewBox="0 0 1024 1024" version="1.1" xmlns="http://www.w3.org/2000/svg" p-id="7201" xmlns:xlink="http://www.w3.org/1999/xlink" width="200" height="200"><defs><style type="text/css"></style></defs><path d="M716.8 204.8c-168.96 0-307.2 138.24-307.2 307.2 0 174.08 165.12 373.76 247.04 460.8H172.8C106.24 972.8 51.2 921.6 51.2 857.6c0-62.72 56.32-115.2 121.6-115.2h61.44c70.4 0 128-57.6 128-128s-57.6-128-128-128H102.4c-28.16 0-51.2-23.04-51.2-51.2s23.04-51.2 51.2-51.2h51.2c2.56 0 5.12 0 7.68-1.28h1.28c2.56-1.28 5.12-2.56 6.4-3.84 6.4-5.12 138.24-111.36 138.24-225.28 0-84.48-69.12-153.6-153.6-153.6S0 69.12 0 153.6c0 70.4 49.92 136.96 89.6 180.48-51.2 6.4-89.6 49.92-89.6 101.12 0 56.32 46.08 102.4 102.4 102.4h131.84c42.24 0 76.8 34.56 76.8 76.8s-34.56 76.8-76.8 76.8h-61.44C78.08 691.2 0 765.44 0 857.6s78.08 166.4 172.8 166.4h551.68c1.28 0 1.28 0 2.56-1.28 1.28 0 1.28-1.28 2.56-1.28s1.28-1.28 2.56-1.28 1.28-1.28 2.56-1.28l1.28-1.28C746.24 1006.08 1024 738.56 1024 512c0-168.96-138.24-307.2-307.2-307.2zM153.6 51.2c56.32 0 102.4 46.08 102.4 102.4 0 69.12-70.4 140.8-102.4 170.24C121.6 294.4 51.2 222.72 51.2 153.6c0-56.32 46.08-102.4 102.4-102.4z m563.2 911.36C656.64 899.84 460.8 684.8 460.8 512c0-140.8 115.2-256 256-256s256 115.2 256 256c0 172.8-195.84 387.84-256 450.56z" fill="#bfbfbf" p-id="7202"></path><path d="M716.8 396.8c-64 0-115.2 51.2-115.2 115.2s51.2 115.2 115.2 115.2 115.2-51.2 115.2-115.2-51.2-115.2-115.2-115.2z m0 179.2c-35.84 0-64-28.16-64-64s28.16-64 64-64 64 28.16 64 64-28.16 64-64 64z" fill="#bfbfbf" p-id="7203"></path></svg>